<?xml version="1.0" encoding="UTF-8" standalone="no"?>
<svg
	version="1.0"
	preserveAspectRatio="xMidYMid meet"
	viewBox="0 0 600 600"
	xmlns="http://www.w3.org/2000/svg">
	
	<g fill="#E98A15" stroke="#372248">
		<path d="m 285.5,56.6 c -1.6,0.2 -7.7,0.9 -13.5,1.5 -43.5,4.4 -87.9,19.9 -122.9,42.9 -19.3,12.7 -38.9,29.2 -50.8,43 -10.3,12 -27.7,38.9 -26.1,40.5 0.2,0.3 5.6,-3.7 11.9,-8.7 15,-12.1 29.3,-21.3 46.2,-29.9 61.3,-31.2 130.8,-41.8 202.6,-31 9.2,1.4 28,6.1 42.4,10.5 4.1,1.3 4.7,1.3 4.7,0.1 0,-0.8 -2.3,-9.4 -5.1,-19 L 369.7,89 380.4,77.9 C 386.3,71.8 390.9,66.6 390.8,66.4 389.1,64.8 351.7,58.7 333,57 322.4,56.1 292.5,55.8 285.5,56.6 Z"/>
		<path d="m 397.2,82.1 c -5.1,5.1 -9.1,9.6 -8.9,10.2 0.1,0.5 3.9,2 8.2,3.3 4.4,1.2 14.3,4.3 22,6.8 7.7,2.5 14.3,4.2 14.7,3.8 0.6,-0.6 7.8,-21.4 7.8,-22.6 0,-0.5 -27.1,-9.3 -31.6,-10.2 -2.6,-0.5 -3.8,0.4 -12.2,8.7 z"/>
		<path d="m 457,75.3 c -1.7,0.9 -3.3,3.3 -5.2,8.2 -4.4,11.8 -9,27.7 -8.1,28.5 1.2,1.2 15.5,8.6 17.8,9.4 2.8,0.8 4.9,-3.1 12.5,-23.9 3.3,-8.9 3.4,-10.2 1.6,-14.9 -1.4,-3.7 -2.4,-4.7 -6.6,-6.5 -5.6,-2.4 -8.5,-2.6 -12,-0.8 z"/>
		<path d="m 390,104.2 c 0,0.7 1.7,7.4 3.8,14.8 3.2,11.3 4.2,13.7 6.2,14.7 2.9,1.5 18.9,8.3 19.5,8.3 0.4,0 8.5,-22.7 8.5,-24 0,-0.4 -2.3,-1.7 -5.1,-2.9 -5.4,-2.4 -31.5,-12.1 -32.4,-12.1 -0.3,0 -0.5,0.6 -0.5,1.2 z"/>
		<path d="m 437.2,123.7 c -1.6,3.2 -9.2,23.1 -9.2,24.2 0,0.6 1.6,2.1 3.5,3.3 1.9,1.3 3.5,3.1 3.5,4 0,1.4 -3.9,14.9 -5.7,19.5 -0.6,1.5 14.6,8.9 15.7,7.6 1.3,-1.4 13.2,-43.7 13.4,-47.3 0.1,-3.5 0,-3.6 -9.4,-8.2 -5.2,-2.6 -9.8,-4.7 -10.2,-4.8 -0.4,0 -1.1,0.8 -1.6,1.7 z"/>
		<path d="m 210.1,191.8 c -6.2,12.1 -4.9,43.7 2.6,66.2 1.8,5.3 1.8,5.8 0.2,11.1 -4.6,15 -4.5,31.2 0.1,46.2 l 2.1,6.9 3.7,-0.7 c 16.1,-3.1 23.5,-3.2 26.2,-0.5 4.4,4.4 0.5,9.3 -8.2,10.3 -3,0.4 -7.2,1.4 -9.3,2.2 -3.7,1.6 -3.7,1.6 -1.9,3.7 7.2,8.1 16.3,15 25.6,19.3 l 4.7,2.2 -3.5,3.4 C 227.8,385.8 210,436.5 210,483 c 0,26.2 4.6,47.4 14.4,66.8 l 2.4,4.8 -2.8,6 c -1.6,3.2 -3.2,7.2 -3.5,8.7 l -0.7,2.8 24.3,-0.3 24.4,-0.3 0.6,-10.5 c 0.4,-5.8 1.4,-12.6 2.4,-15.2 4,-11.1 16.5,-19.8 28.5,-19.9 9.7,-0.1 16.6,2.1 21.8,7.1 1.3,1.2 2.6,2 2.8,1.7 1.4,-1.4 39.4,-148.2 39.4,-152.3 0,-2 -7.7,-12.1 -15.1,-19.9 l -3.9,-4.1 5.7,-2.8 c 7.4,-3.6 16.7,-10.2 21.8,-15.6 3.7,-3.8 3.9,-4.2 2.2,-5.4 -0.9,-0.7 -4.5,-1.9 -8,-2.5 -8.1,-1.6 -11,-3.1 -12.1,-6.4 -0.8,-2.1 -0.6,-3.1 1,-4.8 1.8,-2 2.5,-2.1 10.9,-1.4 16.4,1.3 14.4,2.1 17.2,-7 5.3,-17.5 6.5,-29 4.3,-40.6 -0.8,-4.3 -0.7,-5.9 0.6,-8.7 5.4,-11.5 9.3,-39.6 7.5,-54.9 -2.6,-22.3 -5.1,-24 -22.2,-15.4 -10.2,5.1 -18.4,10.9 -27.4,19.5 l -7,6.6 -9,-3 c -12.9,-4.2 -20.9,-5.3 -34.3,-4.7 -11.2,0.4 -20.4,2.5 -30.8,6.8 -3.1,1.2 -3.2,1.2 -10.2,-5.8 -8.3,-8.3 -21,-17 -30.9,-21.3 -9.7,-4.1 -11.8,-4 -14.2,0.8 z m 18.2,17.5 c 9.3,6 19.4,16.7 15.8,16.7 -0.5,0 -4,1.8 -7.9,4 -8.1,4.7 -11.8,5.1 -13.2,1.6 -1.1,-3.1 -2.5,-21.9 -1.7,-24 0.8,-2.1 1,-2.1 7,1.7 z m 152.9,2.9 c 0.2,3.5 0.2,9.6 0,13.6 -0.3,6.6 -0.6,7.4 -2.8,8.4 -2,1 -3.7,0.4 -11.9,-3.6 l -9.5,-4.8 1.9,-2.6 c 3.7,-5.1 18.6,-17.2 21.2,-17.2 0.5,0 0.9,2.8 1.1,6.2 z m -117,61.5 c 6.7,4 9.3,14.2 5.3,21 -2.3,3.9 -8.2,7.3 -12.7,7.3 -7.4,0 -14.7,-7.3 -14.8,-14.8 0,-4.6 3.5,-10.9 7.3,-13.2 4,-2.5 10.9,-2.6 14.9,-0.3 z m 87.6,0.3 c 10,6.1 9.6,20.7 -0.8,26.1 -6.2,3.4 -12.7,2.1 -17.9,-3.5 -3.5,-3.7 -4.1,-12.7 -1.2,-17.4 2.8,-4.3 7.7,-7.2 12.6,-7.2 2.2,0 5.4,0.9 7.3,2 z m -42,22.6 c 3.5,1 3.1,6.7 -0.9,10.3 -3.5,3.3 -3.4,5.2 0.8,10.1 2.6,3.2 5.9,3.8 9.4,1.9 2.6,-1.3 6.9,1.2 6.9,4.1 0,2.5 -4.5,6.7 -7.9,7.3 -4.3,0.9 -10,-0.9 -14.3,-4.4 -2.4,-1.8 -4.3,-2.7 -4.7,-2.2 -0.3,0.6 -2.4,2.2 -4.5,3.7 -5.4,3.6 -13.6,3.7 -17.1,0.1 -5.1,-5 -2.4,-9.1 5.3,-8 5.6,0.7 9,-1.3 11.2,-6.6 1.2,-2.8 1.1,-3.3 -0.7,-4.8 -4.3,-3.4 -5.6,-9.2 -2.5,-11 1.9,-1.1 15.3,-1.4 19,-0.5 z m -25.3,124.1 c 4.1,14 10.3,21.1 25,28.3 14.1,6.9 18.8,12.7 18.9,23.5 0.1,12.7 -8.6,21.5 -24.2,24.5 -21.2,4.2 -51.6,-9.2 -66.7,-29.2 -11.6,-15.4 -14.9,-30.2 -11,-48.9 1.6,-7.7 2.2,-9 2.9,-6.8 0.2,0.8 2.2,8.1 4.6,16.4 2.3,8.2 5.5,17.5 7.2,20.6 8,15.2 25.7,29.4 41.4,33.3 7.8,2 20.3,2.1 24.8,0.2 4.4,-1.8 7.6,-6.1 7.6,-10.1 0,-4.6 -4,-8.5 -14,-13.5 -13.7,-6.9 -23.9,-18.2 -27,-29.9 -0.7,-2.5 -1.2,-8.4 -1.1,-13.1 0,-9.4 2.3,-17.4 6.4,-22.6 l 2.2,-2.9 0.7,12.3 c 0.3,6.7 1.4,14.8 2.3,17.9 z"/>
		<path d="m 424.9,194.7 c -1.5,3.6 -31.9,125.2 -31.9,127.5 0,1.2 2.1,2.8 6,4.8 3.3,1.6 6.4,3 6.8,3 0.5,0 2.1,-4.6 3.6,-10.3 3.9,-15.5 24.8,-96.8 28.7,-111.6 1,-4.1 1.9,-8.1 1.9,-8.8 0,-1.2 -7.1,-5.3 -11.7,-6.7 -1.9,-0.6 -2.5,-0.2 -3.4,2.1 z"/>
		<path d="m 507.5,325.8 c -14.5,5 -29.5,19.2 -37.8,35.8 -4.7,9.3 -6.8,19.6 -7.4,35.4 -0.4,13.1 -0.2,16.4 2.7,34 6.2,37.5 3.7,54.9 -10.4,72.2 -9.1,11.1 -28.9,21.7 -42.3,22.6 l -7.3,0.5 -1,4.1 c -0.6,2.2 -2.2,7.3 -3.5,11.3 -1.4,3.9 -2.5,7.4 -2.5,7.7 0,0.3 3.6,0.6 8,0.6 25.3,0 54.1,-13.2 70,-32.2 16.2,-19.2 21.6,-43.1 17.5,-76.3 -2.1,-16.3 -2.3,-33.5 -0.7,-41.9 1.6,-7.8 5.1,-15.4 10.4,-22.1 5.5,-7.1 11.1,-11 19.8,-14 3.9,-1.3 8.4,-3.4 10,-4.5 7.3,-5.2 9.4,-17.2 4.6,-25.4 -5.1,-8.7 -18,-12 -30.1,-7.8 z"/>
		<path d="m 387.7,339.7 c -0.5,0.8 -8.1,31.4 -16.4,65.8 -2.5,10.4 -8.1,33 -12.4,50.1 -4.4,17.2 -7.9,32.7 -7.9,34.7 0,9.7 14,15 25.5,9.6 9.8,-4.6 16.4,-12.9 20.1,-25.4 2.7,-8.9 2.5,-27.2 -0.5,-39.3 -1.2,-5 -2.6,-9 -3.1,-8.7 -0.4,0.3 -1.1,2.2 -1.5,4.2 -2,11.4 -9,37.3 -11,41.2 -3.1,6 -13.5,16.4 -13.5,13.5 0,-5.3 11.4,-54.3 14.4,-62 2.4,-6.2 21,-77.3 20.4,-78 -0.7,-0.6 -12.3,-6.4 -13,-6.4 -0.4,0 -0.9,0.3 -1.1,0.7 z"/>
		<path d="m 389.9,507.9 c -3.6,2.7 -8.8,5.2 -14.8,7.1 l -5.5,1.7 -4.2,16.4 c -2.3,9 -5.5,21.5 -7.2,27.7 l -3,11.2 16.6,-0.2 c 19.2,-0.3 18.2,0.5 13.1,-10.8 l -3,-6.5 3.6,-7.8 c 4.5,-9.7 7.1,-19.7 8,-30.8 0.8,-9.5 0.1,-11 -3.6,-8 z"/>
		<path d="m 344.6,509.3 c -0.3,0.6 -0.9,3.4 -1.6,6.2 -0.6,2.7 -4,16.1 -7.5,29.6 -3.6,13.5 -6.5,25.1 -6.5,25.7 0,0.8 2.3,1.2 6.5,1.2 6.1,0 6.6,-0.2 7.5,-2.6 2.3,-5.8 14.1,-53.5 13.5,-54.4 -0.3,-0.6 -1.1,-1 -1.7,-1 -0.5,0 -3,-1.3 -5.4,-3 -3,-2 -4.6,-2.6 -4.8,-1.7 z"/>
	</g>
</svg>
